<svg width="24" height="24" viewBox="0 0 24 24" fill="none" xmlns="http://www.w3.org/2000/svg">
<path fill-rule="evenodd" clip-rule="evenodd" d="M4.848 2.771C7.21613 2.4234 9.60649 2.24927 12 2.25C14.43 2.25 16.817 2.428 19.152 2.77C21.13 3.062 22.5 4.794 22.5 6.74V12.76C22.5 14.706 21.13 16.438 19.152 16.73C17.9983 16.8991 16.8389 17.0268 15.676 17.113C15.6168 17.1169 15.5593 17.1342 15.5079 17.1637C15.4564 17.1931 15.4123 17.234 15.379 17.283L12.624 21.416C12.5555 21.5187 12.4627 21.6029 12.3539 21.6612C12.245 21.7194 12.1235 21.7499 12 21.7499C11.8765 21.7499 11.755 21.7194 11.6461 21.6612C11.5373 21.6029 11.4445 21.5187 11.376 21.416L8.621 17.283C8.58768 17.234 8.54361 17.1931 8.49214 17.1637C8.44068 17.1342 8.38317 17.1169 8.324 17.113C7.16113 17.0265 6.00172 16.8984 4.848 16.729C2.87 16.439 1.5 14.705 1.5 12.759V6.741C1.5 4.795 2.87 3.061 4.848 2.771ZM6.75 8.25C6.75 8.05109 6.82902 7.86032 6.96967 7.71967C7.11032 7.57902 7.30109 7.5 7.5 7.5H16.5C16.6989 7.5 16.8897 7.57902 17.0303 7.71967C17.171 7.86032 17.25 8.05109 17.25 8.25C17.25 8.44891 17.171 8.63968 17.0303 8.78033C16.8897 8.92098 16.6989 9 16.5 9H7.5C7.30109 9 7.11032 8.92098 6.96967 8.78033C6.82902 8.63968 6.75 8.44891 6.75 8.25ZM7.5 10.5C7.30109 10.5 7.11032 10.579 6.96967 10.7197C6.82902 10.8603 6.75 11.0511 6.75 11.25C6.75 11.4489 6.82902 11.6397 6.96967 11.7803C7.11032 11.921 7.30109 12 7.5 12H12C12.1989 12 12.3897 11.921 12.5303 11.7803C12.671 11.6397 12.75 11.4489 12.75 11.25C12.75 11.0511 12.671 10.8603 12.5303 10.7197C12.3897 10.579 12.1989 10.5 12 10.5H7.5Z" fill="#172554"/>
</svg>
