<svg width="24" height="24" viewBox="0 0 24 24" fill="none" xmlns="http://www.w3.org/2000/svg">
<path d="M11.47 3.83999C11.6106 3.69954 11.8012 3.62065 12 3.62065C12.1987 3.62065 12.3894 3.69954 12.53 3.83999L21.22 12.53C21.2886 12.6037 21.3715 12.6628 21.4634 12.7038C21.5554 12.7448 21.6548 12.7668 21.7555 12.7686C21.8562 12.7704 21.9562 12.7518 22.0496 12.7141C22.143 12.6764 22.2278 12.6202 22.299 12.549C22.3702 12.4778 22.4264 12.393 22.4641 12.2996C22.5018 12.2062 22.5204 12.1062 22.5186 12.0055C22.5168 11.9048 22.4948 11.8055 22.4538 11.7135C22.4128 11.6215 22.3537 11.5387 22.28 11.47L13.591 2.77999C13.3821 2.57106 13.134 2.40532 12.861 2.29225C12.588 2.17917 12.2955 2.12097 12 2.12097C11.7045 2.12097 11.4119 2.17917 11.1389 2.29225C10.866 2.40532 10.6179 2.57106 10.409 2.77999L1.71899 11.47C1.58244 11.6115 1.50693 11.801 1.50873 11.9976C1.51053 12.1943 1.5895 12.3824 1.72862 12.5214C1.86774 12.6603 2.05589 12.7391 2.25254 12.7407C2.44919 12.7424 2.6386 12.6667 2.77999 12.53L11.47 3.83999Z" fill="#172554"/>
<path d="M12 5.43199L20.159 13.591C20.189 13.621 20.219 13.649 20.25 13.677V19.875C20.25 20.91 19.41 21.75 18.375 21.75H15C14.8011 21.75 14.6103 21.671 14.4697 21.5303C14.329 21.3897 14.25 21.1989 14.25 21V16.5C14.25 16.3011 14.171 16.1103 14.0303 15.9697C13.8897 15.829 13.6989 15.75 13.5 15.75H10.5C10.3011 15.75 10.1103 15.829 9.96967 15.9697C9.82902 16.1103 9.75 16.3011 9.75 16.5V21C9.75 21.1989 9.67098 21.3897 9.53033 21.5303C9.38968 21.671 9.19891 21.75 9 21.75H5.625C5.12772 21.75 4.65081 21.5524 4.29917 21.2008C3.94754 20.8492 3.75 20.3723 3.75 19.875V13.677C3.78111 13.6492 3.81146 13.6205 3.841 13.591L12 5.42999V5.43199Z" fill="#172554"/>
</svg>
