<svg width="24" height="24" viewBox="0 0 24 24" fill="none" xmlns="http://www.w3.org/2000/svg">
<path d="M16.5 7.5H7.5V16.5H16.5V7.5Z" fill="#172554"/>
<path fill-rule="evenodd" clip-rule="evenodd" d="M8.25 2.25C8.44891 2.25 8.63968 2.32902 8.78033 2.46967C8.92098 2.61032 9 2.80109 9 3V3.75H11.25V3C11.25 2.80109 11.329 2.61032 11.4697 2.46967C11.6103 2.32902 11.8011 2.25 12 2.25C12.1989 2.25 12.3897 2.32902 12.5303 2.46967C12.671 2.61032 12.75 2.80109 12.75 3V3.75H15V3C15 2.80109 15.079 2.61032 15.2197 2.46967C15.3603 2.32902 15.5511 2.25 15.75 2.25C15.9489 2.25 16.1397 2.32902 16.2803 2.46967C16.421 2.61032 16.5 2.80109 16.5 3V3.75H17.25C18.0456 3.75 18.8087 4.06607 19.3713 4.62868C19.9339 5.19129 20.25 5.95435 20.25 6.75V7.5H21C21.1989 7.5 21.3897 7.57902 21.5303 7.71967C21.671 7.86032 21.75 8.05109 21.75 8.25C21.75 8.44891 21.671 8.63968 21.5303 8.78033C21.3897 8.92098 21.1989 9 21 9H20.25V11.25H21C21.1989 11.25 21.3897 11.329 21.5303 11.4697C21.671 11.6103 21.75 11.8011 21.75 12C21.75 12.1989 21.671 12.3897 21.5303 12.5303C21.3897 12.671 21.1989 12.75 21 12.75H20.25V15H21C21.1989 15 21.3897 15.079 21.5303 15.2197C21.671 15.3603 21.75 15.5511 21.75 15.75C21.75 15.9489 21.671 16.1397 21.5303 16.2803C21.3897 16.421 21.1989 16.5 21 16.5H20.25V17.25C20.25 18.0456 19.9339 18.8087 19.3713 19.3713C18.8087 19.9339 18.0456 20.25 17.25 20.25H16.5V21C16.5 21.1989 16.421 21.3897 16.2803 21.5303C16.1397 21.671 15.9489 21.75 15.75 21.75C15.5511 21.75 15.3603 21.671 15.2197 21.5303C15.079 21.3897 15 21.1989 15 21V20.25H12.75V21C12.75 21.1989 12.671 21.3897 12.5303 21.5303C12.3897 21.671 12.1989 21.75 12 21.75C11.8011 21.75 11.6103 21.671 11.4697 21.5303C11.329 21.3897 11.25 21.1989 11.25 21V20.25H9V21C9 21.1989 8.92098 21.3897 8.78033 21.5303C8.63968 21.671 8.44891 21.75 8.25 21.75C8.05109 21.75 7.86032 21.671 7.71967 21.5303C7.57902 21.3897 7.5 21.1989 7.5 21V20.25H6.75C5.95435 20.25 5.19129 19.9339 4.62868 19.3713C4.06607 18.8087 3.75 18.0456 3.75 17.25V16.5H3C2.80109 16.5 2.61032 16.421 2.46967 16.2803C2.32902 16.1397 2.25 15.9489 2.25 15.75C2.25 15.5511 2.32902 15.3603 2.46967 15.2197C2.61032 15.079 2.80109 15 3 15H3.75V12.75H3C2.80109 12.75 2.61032 12.671 2.46967 12.5303C2.32902 12.3897 2.25 12.1989 2.25 12C2.25 11.8011 2.32902 11.6103 2.46967 11.4697C2.61032 11.329 2.80109 11.25 3 11.25H3.75V9H3C2.80109 9 2.61032 8.92098 2.46967 8.78033C2.32902 8.63968 2.25 8.44891 2.25 8.25C2.25 8.05109 2.32902 7.86032 2.46967 7.71967C2.61032 7.57902 2.80109 7.5 3 7.5H3.75V6.75C3.75 5.95435 4.06607 5.19129 4.62868 4.62868C5.19129 4.06607 5.95435 3.75 6.75 3.75H7.5V3C7.5 2.80109 7.57902 2.61032 7.71967 2.46967C7.86032 2.32902 8.05109 2.25 8.25 2.25ZM6 6.75C6 6.55109 6.07902 6.36032 6.21967 6.21967C6.36032 6.07902 6.55109 6 6.75 6H17.25C17.4489 6 17.6397 6.07902 17.7803 6.21967C17.921 6.36032 18 6.55109 18 6.75V17.25C18 17.4489 17.921 17.6397 17.7803 17.7803C17.6397 17.921 17.4489 18 17.25 18H6.75C6.55109 18 6.36032 17.921 6.21967 17.7803C6.07902 17.6397 6 17.4489 6 17.25V6.75Z" fill="#172554"/>
</svg>
