<svg width="24" height="24" viewBox="0 0 24 24" fill="none" xmlns="http://www.w3.org/2000/svg">
<path d="M20.25 14.15V18.4C20.25 19.494 19.463 20.436 18.378 20.58C16.291 20.857 14.162 21 12 21C9.83799 21 7.70899 20.857 5.62199 20.58C4.53699 20.436 3.74999 19.494 3.74999 18.4V14.15M20.25 14.15C20.4875 13.9436 20.6774 13.6883 20.8069 13.4016C20.9364 13.1149 21.0022 12.8036 21 12.489V8.706C21 7.625 20.232 6.691 19.163 6.531C18.0303 6.36142 16.8919 6.23234 15.75 6.144M20.25 14.15C20.056 14.315 19.83 14.445 19.577 14.53C17.1332 15.3408 14.5748 15.7528 12 15.75C9.35199 15.75 6.80499 15.321 4.42299 14.53C4.17625 14.4479 3.94772 14.3189 3.74999 14.15M3.74999 14.15C3.51254 13.9436 3.32256 13.6883 3.19309 13.4016C3.06363 13.1149 2.99776 12.8036 2.99999 12.489V8.706C2.99999 7.625 3.76799 6.691 4.83699 6.531C5.96969 6.36142 7.10808 6.23233 8.24999 6.144M15.75 6.144V5.25C15.75 4.65326 15.5129 4.08097 15.091 3.65901C14.669 3.23705 14.0967 3 13.5 3H10.5C9.90326 3 9.33096 3.23705 8.909 3.65901C8.48705 4.08097 8.24999 4.65326 8.24999 5.25V6.144M15.75 6.144C13.2537 5.95108 10.7463 5.95108 8.24999 6.144M12 12.75H12.008V12.758H12V12.75Z" stroke="#172554" stroke-width="1.5" stroke-linecap="round" stroke-linejoin="round"/>
</svg>
