<svg width="123" height="123" viewBox="0 0 123 123" fill="none" xmlns="http://www.w3.org/2000/svg">
<path d="M61 70.725H39.0049C37.5964 70.725 36.8922 70.725 36.5973 70.2635C36.3024 69.8019 36.5982 69.1629 37.1899 67.8847L60.5463 17.4351C60.9205 16.6268 61.1075 16.2227 61.3038 16.2659C61.5 16.3091 61.5 16.7545 61.5 17.6451V51.775C61.5 52.0107 61.5 52.1286 61.5732 52.2018C61.6464 52.275 61.7643 52.275 62 52.275H83.9951C85.4036 52.275 86.1078 52.275 86.4027 52.7365C86.6976 53.1981 86.4018 53.8371 85.8101 55.1152L62.4537 105.565C62.0795 106.373 61.8925 106.777 61.6962 106.734C61.5 106.691 61.5 106.246 61.5 105.355V71.225C61.5 70.9893 61.5 70.8714 61.4268 70.7982C61.3536 70.725 61.2357 70.725 61 70.725Z" fill="white"/>
</svg>
