<svg width="43" height="27" viewBox="0 0 43 27" fill="none" xmlns="http://www.w3.org/2000/svg">
<g clip-path="url(#clip0_83_389)">
<path d="M2 1H8.06939V3.50172H4.62914V24.4983H8.06939V27H2V1Z" fill="#E5E7EB"/>
<path fill-rule="evenodd" clip-rule="evenodd" d="M28.3422 7.24032C26.7985 5.63171 24.673 4.82741 21.9659 4.82741C20.2431 4.82741 18.7217 5.21773 17.4017 5.99838C16.0817 6.75537 15.0525 7.83171 14.3142 9.22741C13.9401 9.94427 13.6638 10.7192 13.4852 11.5523H9.86472L8.06939 15.5082H13.3306C13.4813 16.7347 13.8203 17.8465 14.3478 18.8436C15.1085 20.2156 16.1712 21.2801 17.536 22.0371C18.9231 22.7941 20.5452 23.1726 22.4021 23.1726C23.834 23.1726 25.1876 22.9124 26.4629 22.3919C27.7382 21.8715 28.8121 21.1382 29.6846 20.1919L27.2012 17.4952C26.6642 18.0156 25.9819 18.4296 25.154 18.7371C24.3262 19.021 23.4649 19.1629 22.5699 19.1629C21.2499 19.1629 20.1536 18.8317 19.2811 18.1694C18.4309 17.507 17.9275 16.62 17.7709 15.5082H34.401L35.7973 11.5523H30.4707C30.1566 9.81205 29.4471 8.3747 28.3422 7.24032ZM26.2255 11.5523C26.0305 10.8011 25.651 10.1798 25.0869 9.6887C24.3262 9.02634 23.3306 8.69516 22.1001 8.69516C20.9143 8.69516 19.9411 9.02634 19.1804 9.6887C18.6297 10.1651 18.2408 10.7863 18.0137 11.5523H26.2255Z" fill="#E5E7EB"/>
<path d="M35.7973 1H41.8667V27H35.7973V24.4983H39.2376V3.50172H35.7973V1Z" fill="#E5E7EB"/>
</g>
<path d="M0.00923296 13.3082V11.7635C1.16951 11.7635 1.97964 11.5266 2.43963 11.0529C2.89962 10.5723 3.12962 9.77936 3.12962 8.67401V5.71839C3.12962 4.66797 3.24633 3.78575 3.47976 3.07173C3.72005 2.35085 4.08393 1.77415 4.57138 1.34162C5.05883 0.90909 5.67673 0.596709 6.42507 0.404474C7.17341 0.212239 8.05563 0.116122 9.07173 0.116122V2.55682C8.27533 2.55682 7.654 2.67353 7.20774 2.90696C6.76148 3.14039 6.4491 3.50426 6.2706 3.99858C6.09896 4.48603 6.01314 5.1108 6.01314 5.87287V9.62145C6.01314 10.1501 5.93419 10.641 5.77628 11.0941C5.61837 11.5404 5.32659 11.9283 4.90092 12.2578C4.47526 12.5874 3.86766 12.8448 3.07812 13.0302C2.28859 13.2156 1.26563 13.3082 0.00923296 13.3082ZM9.07173 26.3871C8.05563 26.3871 7.17341 26.291 6.42507 26.0987C5.67673 25.9065 5.05883 25.5941 4.57138 25.1616C4.08393 24.729 3.72005 24.1523 3.47976 23.4315C3.24633 22.7174 3.12962 21.8352 3.12962 20.7848V17.8189C3.12962 16.7204 2.89962 15.9309 2.43963 15.4503C1.97964 14.9697 1.16951 14.7294 0.00923296 14.7294V13.195C1.26563 13.195 2.28859 13.2876 3.07812 13.473C3.86766 13.6515 4.47526 13.909 4.90092 14.2454C5.32659 14.5749 5.61837 14.9663 5.77628 15.4194C5.93419 15.8656 6.01314 16.3531 6.01314 16.8817V20.6303C6.01314 21.3855 6.09896 22.0069 6.2706 22.4943C6.4491 22.9886 6.76148 23.3525 7.20774 23.5859C7.654 23.8262 8.27533 23.9464 9.07173 23.9464V26.3871ZM0.00923296 14.7294V11.7635H2.86186V14.7294H0.00923296ZM42.9325 13.195V14.7294C41.7723 14.7294 40.9621 14.9697 40.5021 15.4503C40.0421 15.9309 39.8121 16.7204 39.8121 17.8189V20.7848C39.8121 21.8352 39.692 22.7174 39.4517 23.4315C39.2183 24.1523 38.8578 24.729 38.3704 25.1616C37.8829 25.5941 37.265 25.9065 36.5167 26.0987C35.7683 26.291 34.8861 26.3871 33.87 26.3871V23.9464C34.6664 23.9464 35.2878 23.8262 35.734 23.5859C36.1803 23.3525 36.4892 22.9886 36.6609 22.4943C36.8394 22.0069 36.9286 21.3855 36.9286 20.6303V16.8817C36.9286 16.3531 37.0076 15.8656 37.1655 15.4194C37.3234 14.9663 37.6152 14.5749 38.0408 14.2454C38.4665 13.909 39.0741 13.6515 39.8636 13.473C40.6532 13.2876 41.6761 13.195 42.9325 13.195ZM33.87 0.116122C34.8861 0.116122 35.7683 0.212239 36.5167 0.404474C37.265 0.596709 37.8829 0.90909 38.3704 1.34162C38.8578 1.77415 39.2183 2.35085 39.4517 3.07173C39.692 3.78575 39.8121 4.66797 39.8121 5.71839V8.67401C39.8121 9.77936 40.0421 10.5723 40.5021 11.0529C40.9621 11.5266 41.7723 11.7635 42.9325 11.7635V13.3082C41.6761 13.3082 40.6532 13.2156 39.8636 13.0302C39.0741 12.8448 38.4665 12.5874 38.0408 12.2578C37.6152 11.9283 37.3234 11.5404 37.1655 11.0941C37.0076 10.641 36.9286 10.1501 36.9286 9.62145V5.87287C36.9286 5.1108 36.8394 4.48603 36.6609 3.99858C36.4892 3.50426 36.1803 3.14039 35.734 2.90696C35.2878 2.67353 34.6664 2.55682 33.87 2.55682V0.116122ZM42.9325 11.7635V14.7294H40.0799V11.7635H42.9325Z" fill="#E5E7EB"/>
<defs>
<clipPath id="clip0_83_389">
<rect width="29" height="20" fill="white" transform="translate(7 4)"/>
</clipPath>
</defs>
</svg>
